<?xml version="1.0" standalone="no"?><!DOCTYPE svg PUBLIC "-//W3C//DTD SVG 1.1//EN" "http://www.w3.org/Graphics/SVG/1.1/DTD/svg11.dtd"><svg t="1552378979826" class="icon" style="" viewBox="0 0 1418 1024" version="1.1" xmlns="http://www.w3.org/2000/svg" p-id="1348" xmlns:xlink="http://www.w3.org/1999/xlink" width="276.953125" height="200"><defs><style type="text/css"></style></defs><path d="M479.615127 226.499115c0 5.680978-0.512998 10.846958-1.547994 14.979942-2.58299 17.560931-8.778966 24.276905-8.778966 28.922887 0 4.651982 5.15998 5.679978 9.813962 5.679978 28.922887 0 91.940641-30.471881 183.882281-30.471881 26.853895 0 105.366588 3.611986 105.366589 29.957883 0 51.652798-215.904157 121.386526-215.904157 121.386525s0 0.513998 0.513998 0.513998h14.465943c37.706853-2.067992 131.713485-36.671857 301.133824-36.671856 110.538568 0 273.238933 20.143921 273.238933 58.365772 0 22.209913-53.199792 68.699732-109.499572 113.116558-48.55781 38.227851-115.18555 72.316718-115.18555 110.02457 0 25.305901 28.919887 29.435885 55.265784 29.435885 52.169796 0 130.167492-18.074929 181.305291-18.074929 22.207913 0 51.1368 3.616986 51.136801 25.310901 0 35.124863-245.358042 345.035652-611.056613 345.035652-41.319839 0-95.552627-6.195976-95.552627-46.485818 0-39.769845 51.649798-100.719607 96.588623-135.329472 35.636861-27.374893 63.529752-35.638861 63.529751-40.80484 0-3.097988-10.32896-3.619986-13.943945-3.619986-29.955883 0-103.821594 14.983941-172.001328 56.818778-52.170796 32.025875-66.62974 44.941824-113.636556 68.698731-29.443885 14.464943-59.914766 34.610865-103.302597 34.610865-58.367772 0-87.811657-35.123863-87.811657-87.296659 0-59.401768 56.818778-75.929703 56.818778-133.260479 0-54.755786-127.579502-16.527935-127.579501-80.580685 0-27.889891 25.303901-61.46576 31.505877-69.729728 106.920582-142.045445 211.773173-133.781477 237.599071-147.211425 29.443885-14.977941-2.58299-23.756907-23.755907-23.756907-19.631923 0-42.873833 7.74397-63.534752 16.007937-8.783966 3.617986-20.658919 14.983941-37.706852 14.983942-13.944946 0-18.075929-13.949946-18.07593-27.893891-0.519998-86.261663 180.266296-215.391159 237.085074-215.391159 14.457944 0 19.623923 8.263968 19.623924 22.729911z m0 0" fill="#EEF6FD" p-id="1349"></path><path d="M894.382506 248.19203h-521.687962c-12.90995 0-23.241909 10.32796-23.241909 22.729912v626.026554c0 12.396952 10.33196 22.724911 23.241909 22.724912h521.688962c12.398952 0 23.251909-10.32696 23.251909-22.724912v-626.027554c-0.002-12.399952-10.33396-22.729911-23.252909-22.729911" fill="#E4EFF7" p-id="1350"></path><path d="M846.348694 865.436619H417.117371c-12.396952 0-23.243909-10.32496-23.24391-22.723911V330.31671c0-12.396952 10.32796-22.722911 23.24391-22.722912h429.231323c12.397952 0 23.244909 10.32596 23.244909 22.722912v512.395998c0 12.398952-10.33496 22.723911-23.244909 22.723911z m0 0" fill="#FFFFFF" p-id="1351"></path><path d="M107.721579 808.103843H91.707642v-16.013937c0-4.129984-3.617986-7.74297-7.74997-7.74297s-7.74997 3.613986-7.74997 7.74297v16.013937H60.714763c-4.130984 0-7.74997 3.619986-7.74997 7.74997 0 4.131984 3.618986 7.74797 7.74997 7.74797H76.7297v16.009937c0 4.128984 3.611986 7.74897 7.74297 7.74897 4.132984 0 7.74997-3.619986 7.74997-7.74997v-16.008937h16.013937c4.130984 0 7.74997-3.615986 7.74997-7.74897 0-4.129984-3.618986-7.74997-8.263968-7.74997z m0 0" fill="#EEF6FD" p-id="1352"></path><path d="M810.709833 280.215905H463.089191c-8.784966 0-15.499939-6.715974-15.499939-14.979941v-37.186855c0-8.263968 6.714974-14.979941 15.499939-14.979941h347.620642c8.777966 0 15.495939 6.715974 15.49594 14.979941v37.706853c0.001 7.74397-6.717974 14.459944-15.49594 14.459943z m0 0" fill="#D1E6F2" p-id="1353"></path><path d="M687.255315 238.894067H587.051707c-8.263968 0-15.493939-6.714974-15.49394-14.979942v-52.169796c0-8.264968 6.715974-14.979941 15.49394-14.979941h100.203608c8.269968 0 15.501939 6.714974 15.50194 14.979941v52.684794c0 7.74997-7.231972 14.464943-15.50194 14.464944z m0 0" fill="#D1E6F2" p-id="1354"></path><path d="M482.713114 710.994223h262.398975c8.780966 0 15.497939 6.715974 15.49794 15.499939v8.264968c0 8.776966-6.716974 15.492939-15.49794 15.492939h-262.398975c-8.776966 0-15.492939-6.715974-15.492939-15.492939v-8.263968c0-8.262968 7.228972-15.499939 15.492939-15.499939z m0-104.337593h210.229179c8.780966 0 15.492939 6.715974 15.49294 15.49994v8.262967c0 8.778966-6.712974 15.494939-15.49294 15.49494h-210.229179c-8.776966 0-15.492939-6.715974-15.492939-15.49494v-8.263967c0-8.780966 7.228972-15.498939 15.492939-15.49894z m0-104.335592h210.229179c8.780966 0 15.492939 6.713974 15.49294 15.498939v8.263968c0 8.779966-6.712974 15.491939-15.49294 15.491939h-210.229179c-8.776966 0-15.492939-6.713974-15.492939-15.491939v-8.263968c0-8.784966 7.228972-15.499939 15.492939-15.499939z m0-104.337593h262.398975c8.780966 0 15.497939 6.713974 15.49794 15.49894v8.263968c0 8.777966-6.716974 15.491939-15.49794 15.491939h-262.398975c-8.776966 0-15.492939-6.713974-15.492939-15.491939v-8.263968c0-8.785966 7.228972-15.499939 15.492939-15.49994zM873.726587 0.773997l-9.811962 17.561931c-3.097988 5.680978-8.263968 10.846958-13.944945 13.944946l-17.050934 9.817962c-1.031996 0.513998-1.031996 2.57699 0 3.097987l17.050934 9.811962c5.679978 3.096988 10.846958 8.263968 13.944945 13.943946l9.811962 17.562931c0.513998 1.033996 2.57999 1.033996 3.097988 0l9.814962-17.562931c3.096988-5.679978 8.262968-10.846958 13.946945-13.943946l17.048933-9.811962c1.025996-0.519998 1.025996-2.58399 0-3.097987l-17.048933-9.817962c-5.683978-3.097988-10.849958-8.263968-13.946945-13.944946L876.824575 0.773997c-0.517998-1.031996-2.064992-1.031996-3.097988 0z m0 0" fill="#E4EFF7" p-id="1355"></path><path d="M1230.645193 454.802223c7.74297-2.064992 15.495939 2.58299 17.563931 9.816962 2.059992 7.74397-2.58299 15.492939-9.819961 17.555932l-102.787599 27.379893c-7.74297 2.062992-15.495939-2.58199-17.563931-9.816962-2.059992-7.74397 2.58299-15.492939 9.819961-17.562931l102.787599-27.373894zM23.00791 370.092554c2.067992-7.74897 9.812962-11.881954 17.562932-9.817961l102.787598 27.380893c7.75097 2.062992 11.881954 9.811962 9.813962 17.561931-2.062992 7.74297-9.813962 11.875954-17.562932 9.811962L33.33987 387.136488c-7.74997-2.063992-12.394952-9.814962-10.33196-17.042934z m387.393487-306.818801c6.715974-4.130984 15.492939-1.547994 19.631923 5.16598l53.199792 91.942641c4.132984 6.715974 1.549994 15.492939-5.165979 19.110925-6.714974 4.130984-15.492939 1.547994-19.625924-5.16598l-53.205792-91.942641c-4.130984-6.713974-1.547994-15.492939 5.16598-19.109925z m0 0" fill="#EEF6FD" p-id="1356"></path><path d="M1147.480518 708.411233h47.007816c4.129984 0 7.74997 3.618986 7.74997 7.749969 0 4.131984-3.620986 7.74997-7.74997 7.74997h-47.007816c-4.129984 0-7.74997-3.617986-7.74997-7.74997 0-4.130984 3.107988-7.74997 7.74997-7.749969z m0 0" fill="#E4EFF7" p-id="1357"></path><path d="M1162.979457 739.92711v-47.006817c0-4.129984 3.611986-7.74997 7.74697-7.749969 4.129984 0 7.74897 3.619986 7.74897 7.749969v47.006817c0 4.129984-3.620986 7.74297-7.74997 7.742969-4.133984 0-7.74597-3.613986-7.74597-7.742969z m-119.836532-498.968051c11.370956 0 20.659919 9.298964 20.65992 21.179917s-9.289964 21.178917-20.65992 21.178917c-11.360956 0-20.655919-9.297964-20.655919-21.179917-0.513998-11.879954 8.773966-21.179917 20.655919-21.179917m0-10.32796c-17.041933 0-30.989879 13.944946-30.989879 31.506877 0 17.562931 13.947946 31.506877 30.989879 31.506877 17.051933 0 30.994879-13.943946 30.994879-31.506877 0-17.559931-13.942946-31.506877-30.994879-31.506877z m0 0" fill="#E4EFF7" p-id="1358"></path><path d="M654.714443 198.603224c0 11.367956-9.289964 21.179917-21.173918 21.179917-11.879954 0-21.179917-9.298964-21.179917-21.179917 0-11.359956 9.299964-21.178917 21.179917-21.178917 11.884954 0.002 21.173917 9.297964 21.173918 21.179917z m0 0M718.460194 613.891602a167.094347 167.094347 0 1 0 334.188694 0 167.094347 167.094347 0 1 0-334.188694 0z" fill="#FFFFFF" p-id="1359"></path><path d="M885.552541 476.984137c-76.019703 0-136.241468 61.32676-136.241468 136.909465 0 75.577705 61.655759 136.905465 136.241468 136.905465 75.915703 0 136.137468-61.32576 136.244468-136.905465 0-75.582705-61.655759-136.909465-136.244468-136.909465z m83.206675 104.643591l-103.979594 93.036637a10.991957 10.991957 0 0 1-14.692943 0l-0.997996-0.992997c-0.329999-0.441998-0.219999-0.884997-0.440998-1.326994l-49.943805-46.629818c-4.197984-3.753985-4.197984-9.391963 0-13.147949l0.991996-0.883996c3.205987-1.989992 9.501963-1.989992 13.701947 0.883996l44.641825 39.889844 95.028629-85.084667a10.997957 10.997957 0 0 1 14.697943 0l1.104995 0.884996c4.197984 3.755985 4.197984 9.389963-0.111999 13.370948z" fill="#66DFD4" p-id="1360"></path></svg>